<svg width="337" height="89" viewBox="0 0 337 89" fill="none" xmlns="http://www.w3.org/2000/svg">
<path d="M2.56 52V28.96H4.912V52H2.56ZM12.2687 52V28.96H21.1648C21.3887 28.96 21.6394 28.9707 21.9167 28.992C22.2048 29.0027 22.4928 29.0347 22.7808 29.088C23.9861 29.2693 25.0047 29.6907 25.8368 30.352C26.6794 31.0027 27.3141 31.824 27.7407 32.816C28.1781 33.808 28.3967 34.9067 28.3967 36.112C28.3967 37.8507 27.9381 39.36 27.0208 40.64C26.1034 41.92 24.7914 42.7253 23.0848 43.056L22.2688 43.248H14.6207V52H12.2687ZM26.2208 52L21.6768 42.624L23.9327 41.76L28.9248 52H26.2208ZM14.6207 41.008H21.1007C21.2928 41.008 21.5168 40.9973 21.7727 40.976C22.0287 40.9547 22.2794 40.9173 22.5247 40.864C23.3141 40.6933 23.9594 40.368 24.4608 39.888C24.9728 39.408 25.3514 38.8373 25.5968 38.176C25.8528 37.5147 25.9808 36.8267 25.9808 36.112C25.9808 35.3973 25.8528 34.7093 25.5968 34.048C25.3514 33.376 24.9728 32.8 24.4608 32.32C23.9594 31.84 23.3141 31.5147 22.5247 31.344C22.2794 31.2907 22.0287 31.2587 21.7727 31.248C21.5168 31.2267 21.2928 31.216 21.1007 31.216H14.6207V41.008ZM33.4162 52L41.3522 28.96H44.4722L52.4083 52H49.9602L42.4242 30.272H43.3522L35.8642 52H33.4162ZM36.9522 46.416V44.208H48.8562V46.416H36.9522ZM57.8575 52V28.96H60.2255L72.9135 47.84V28.96H75.2815V52H72.9135L60.2255 33.104V52H57.8575ZM88.4517 52V31.216H80.4037V28.96H98.8517V31.216H90.8037V52H88.4517ZM103.338 52V51.504L115.93 31.216H103.658V28.96H119.786V29.504L107.258 49.76H119.674V52H103.338ZM135.186 52.48C133.426 52.48 131.868 52.1173 130.514 51.392C129.17 50.6667 128.114 49.6427 127.346 48.32C126.578 46.9973 126.194 45.4507 126.194 43.68V28.976L128.562 28.96V43.376C128.562 44.5707 128.764 45.6053 129.17 46.48C129.575 47.344 130.103 48.0587 130.754 48.624C131.415 49.1787 132.135 49.5893 132.914 49.856C133.692 50.1227 134.45 50.256 135.186 50.256C135.932 50.256 136.695 50.1227 137.474 49.856C138.252 49.5893 138.967 49.1787 139.618 48.624C140.268 48.0587 140.796 47.344 141.202 46.48C141.607 45.6053 141.81 44.5707 141.81 43.376V28.96H144.178V43.68C144.178 45.4507 143.794 46.9973 143.026 48.32C142.258 49.632 141.196 50.656 139.842 51.392C138.498 52.1173 136.946 52.48 135.186 52.48Z" fill="black"/>
<g filter="url(#filter0_d_32_5)">
<path d="M163.469 62.5L158 80L182.454 38.1016C182.61 37.8344 182.688 37.7008 182.63 37.6004C182.572 37.5 182.418 37.5 182.108 37.5H171.825C171.577 37.5 171.452 37.5 171.392 37.4185C171.332 37.3369 171.369 37.2182 171.444 36.9807L181.954 3.34615L181.954 3.34613C182.338 2.11719 182.53 1.50272 182.367 1.43052C182.204 1.35832 181.878 1.91374 181.227 3.02458L181.227 3.0246L158.353 42.0562C158.196 42.3236 158.118 42.4573 158.175 42.5578C158.233 42.6584 158.388 42.6584 158.698 42.6584H169.125C169.374 42.6584 169.498 42.6584 169.558 42.7399C169.618 42.8215 169.581 42.9402 169.507 43.1777L163.469 62.5Z" fill="#3DA2EA"/>
<path d="M157.714 79.9105L158.259 80.1512L182.713 38.2529L182.722 38.2364C182.792 38.1172 182.86 38.0004 182.9 37.9C182.943 37.7927 182.988 37.6222 182.89 37.451L182.63 37.6004L182.89 37.451C182.792 37.2799 182.622 37.2328 182.508 37.2158C182.401 37.1999 182.265 37.2 182.127 37.2H182.108H171.825C171.772 37.2 171.728 37.2 171.69 37.1993C171.701 37.1628 171.714 37.121 171.73 37.0702L182.241 3.43563L182.241 3.43561L182.241 3.43438L182.241 3.43436L182.245 3.42153C182.433 2.81886 182.58 2.35055 182.658 2.0243C182.696 1.86258 182.724 1.71337 182.726 1.5911C182.726 1.53034 182.721 1.45429 182.694 1.37945C182.664 1.29789 182.601 1.20604 182.489 1.15616C182.376 1.10629 182.266 1.12203 182.185 1.15466C182.111 1.18461 182.052 1.23198 182.007 1.27339C181.918 1.35673 181.826 1.47754 181.732 1.61493C181.544 1.8916 181.296 2.31389 180.978 2.85722L180.978 2.85723L180.976 2.86017L180.969 2.8729L180.969 2.87291L158.094 41.9045L158.084 41.921C158.015 42.0403 157.946 42.1571 157.906 42.2575C157.862 42.3649 157.817 42.5355 157.915 42.707C158.013 42.8785 158.184 42.9256 158.298 42.9426C158.405 42.9585 158.541 42.9584 158.679 42.9584H158.698H169.125C169.178 42.9584 169.222 42.9584 169.26 42.9591C169.25 42.9956 169.237 43.0374 169.221 43.0882L163.182 62.4105L157.714 79.9105Z" stroke="#3DA2EA" stroke-width="0.6"/>
</g>
<path d="M212.075 34.36C210.859 34.36 209.763 34.148 208.787 33.724C207.811 33.3 206.979 32.696 206.291 31.912C205.611 31.128 205.091 30.184 204.731 29.08C204.371 27.968 204.191 26.728 204.191 25.36C204.191 23.552 204.503 21.976 205.127 20.632C205.759 19.28 206.663 18.232 207.839 17.488C209.015 16.744 210.427 16.372 212.075 16.372C213.915 16.372 215.411 16.804 216.563 17.668C217.723 18.524 218.531 19.676 218.987 21.124L217.211 21.556C216.835 20.5 216.215 19.656 215.351 19.024C214.495 18.392 213.427 18.076 212.147 18.076C210.795 18.068 209.671 18.372 208.775 18.988C207.879 19.596 207.203 20.452 206.747 21.556C206.299 22.652 206.071 23.92 206.063 25.36C206.055 26.8 206.275 28.068 206.723 29.164C207.179 30.252 207.859 31.108 208.763 31.732C209.667 32.348 210.795 32.66 212.147 32.668C213.387 32.668 214.411 32.428 215.219 31.948C216.027 31.468 216.639 30.78 217.055 29.884C217.479 28.988 217.719 27.928 217.775 26.704H213.791V25.192H219.623C219.647 25.376 219.659 25.572 219.659 25.78C219.667 25.98 219.671 26.124 219.671 26.212C219.671 27.772 219.391 29.168 218.831 30.4C218.271 31.624 217.427 32.592 216.299 33.304C215.179 34.008 213.771 34.36 212.075 34.36ZM220.404 34L226.356 16.72H228.696L234.648 34H232.812L227.16 17.704H227.856L222.24 34H220.404ZM223.056 29.812V28.156H231.984V29.812H223.056ZM236.815 34V16.72H243.487C243.655 16.72 243.843 16.728 244.051 16.744C244.267 16.752 244.483 16.776 244.699 16.816C245.603 16.952 246.367 17.268 246.991 17.764C247.623 18.252 248.099 18.868 248.419 19.612C248.747 20.356 248.911 21.18 248.911 22.084C248.911 23.388 248.567 24.52 247.879 25.48C247.191 26.44 246.207 27.044 244.927 27.292L244.315 27.436H238.579V34H236.815ZM247.279 34L243.871 26.968L245.563 26.32L249.307 34H247.279ZM238.579 25.756H243.439C243.583 25.756 243.751 25.748 243.943 25.732C244.135 25.716 244.323 25.688 244.507 25.648C245.099 25.52 245.583 25.276 245.959 24.916C246.343 24.556 246.627 24.128 246.811 23.632C247.003 23.136 247.099 22.62 247.099 22.084C247.099 21.548 247.003 21.032 246.811 20.536C246.627 20.032 246.343 19.6 245.959 19.24C245.583 18.88 245.099 18.636 244.507 18.508C244.323 18.468 244.135 18.444 243.943 18.436C243.751 18.42 243.583 18.412 243.439 18.412H238.579V25.756ZM258.718 34.36C256.998 34.36 255.546 33.98 254.362 33.22C253.178 32.452 252.282 31.392 251.674 30.04C251.066 28.688 250.762 27.128 250.762 25.36C250.762 23.592 251.066 22.032 251.674 20.68C252.282 19.328 253.178 18.272 254.362 17.512C255.546 16.744 256.998 16.36 258.718 16.36C260.726 16.36 262.366 16.876 263.638 17.908C264.91 18.932 265.782 20.308 266.254 22.036L264.454 22.504C264.086 21.136 263.426 20.052 262.474 19.252C261.522 18.452 260.27 18.052 258.718 18.052C257.366 18.052 256.242 18.36 255.346 18.976C254.45 19.592 253.774 20.452 253.318 21.556C252.87 22.652 252.638 23.92 252.622 25.36C252.614 26.8 252.834 28.068 253.282 29.164C253.738 30.26 254.418 31.12 255.322 31.744C256.234 32.36 257.366 32.668 258.718 32.668C260.27 32.668 261.522 32.268 262.474 31.468C263.426 30.66 264.086 29.576 264.454 28.216L266.254 28.684C265.782 30.412 264.91 31.792 263.638 32.824C262.366 33.848 260.726 34.36 258.718 34.36ZM269.141 34V16.72H270.905V34H269.141ZM273.303 34L279.255 16.72H281.595L287.547 34H285.711L280.059 17.704H280.755L275.139 34H273.303ZM275.955 29.812V28.156H284.883V29.812H275.955ZM205.151 67V49.72H210.395C210.579 49.72 210.891 49.724 211.331 49.732C211.779 49.74 212.207 49.772 212.615 49.828C213.927 50.012 215.023 50.5 215.903 51.292C216.783 52.084 217.443 53.092 217.883 54.316C218.323 55.54 218.543 56.888 218.543 58.36C218.543 59.832 218.323 61.18 217.883 62.404C217.443 63.628 216.783 64.636 215.903 65.428C215.023 66.22 213.927 66.708 212.615 66.892C212.215 66.94 211.787 66.972 211.331 66.988C210.875 66.996 210.563 67 210.395 67H205.151ZM206.975 65.308H210.395C210.723 65.308 211.075 65.3 211.451 65.284C211.835 65.26 212.163 65.22 212.435 65.164C213.443 64.988 214.255 64.58 214.871 63.94C215.495 63.3 215.951 62.5 216.239 61.54C216.527 60.572 216.671 59.512 216.671 58.36C216.671 57.2 216.527 56.136 216.239 55.168C215.951 54.2 215.495 53.4 214.871 52.768C214.247 52.136 213.435 51.732 212.435 51.556C212.163 51.5 211.831 51.464 211.439 51.448C211.055 51.424 210.707 51.412 210.395 51.412H206.975V65.308ZM221.276 67V49.72H232.076V51.412H223.04V57.388H230.636V59.08H223.04V65.308H232.076V67H221.276ZM246.693 67.36C245.477 67.36 244.381 67.148 243.405 66.724C242.429 66.3 241.597 65.696 240.909 64.912C240.229 64.128 239.709 63.184 239.349 62.08C238.989 60.968 238.809 59.728 238.809 58.36C238.809 56.552 239.121 54.976 239.745 53.632C240.377 52.28 241.281 51.232 242.457 50.488C243.633 49.744 245.045 49.372 246.693 49.372C248.533 49.372 250.029 49.804 251.181 50.668C252.341 51.524 253.149 52.676 253.605 54.124L251.829 54.556C251.453 53.5 250.833 52.656 249.969 52.024C249.113 51.392 248.045 51.076 246.765 51.076C245.413 51.068 244.289 51.372 243.393 51.988C242.497 52.596 241.821 53.452 241.365 54.556C240.917 55.652 240.689 56.92 240.681 58.36C240.673 59.8 240.893 61.068 241.341 62.164C241.797 63.252 242.477 64.108 243.381 64.732C244.285 65.348 245.413 65.66 246.765 65.668C248.005 65.668 249.029 65.428 249.837 64.948C250.645 64.468 251.257 63.78 251.673 62.884C252.097 61.988 252.337 60.928 252.393 59.704H248.409V58.192H254.241C254.265 58.376 254.277 58.572 254.277 58.78C254.285 58.98 254.289 59.124 254.289 59.212C254.289 60.772 254.009 62.168 253.449 63.4C252.889 64.624 252.045 65.592 250.917 66.304C249.797 67.008 248.389 67.36 246.693 67.36ZM255.022 67L260.974 49.72H263.314L269.266 67H267.43L261.778 50.704H262.474L256.858 67H255.022ZM257.674 62.812V61.156H266.602V62.812H257.674ZM271.433 67V49.72H278.105C278.273 49.72 278.461 49.728 278.669 49.744C278.885 49.752 279.101 49.776 279.317 49.816C280.221 49.952 280.985 50.268 281.609 50.764C282.241 51.252 282.717 51.868 283.037 52.612C283.365 53.356 283.529 54.18 283.529 55.084C283.529 56.388 283.185 57.52 282.497 58.48C281.809 59.44 280.825 60.044 279.545 60.292L278.933 60.436H273.197V67H271.433ZM281.897 67L278.489 59.968L280.181 59.32L283.925 67H281.897ZM273.197 58.756H278.057C278.201 58.756 278.369 58.748 278.561 58.732C278.753 58.716 278.941 58.688 279.125 58.648C279.717 58.52 280.201 58.276 280.577 57.916C280.961 57.556 281.245 57.128 281.429 56.632C281.621 56.136 281.717 55.62 281.717 55.084C281.717 54.548 281.621 54.032 281.429 53.536C281.245 53.032 280.961 52.6 280.577 52.24C280.201 51.88 279.717 51.636 279.125 51.508C278.941 51.468 278.753 51.444 278.561 51.436C278.369 51.42 278.201 51.412 278.057 51.412H273.197V58.756ZM285.373 67L291.325 49.72H293.665L299.617 67H297.781L292.129 50.704H292.825L287.209 67H285.373ZM288.025 62.812V61.156H296.953V62.812H288.025ZM304.47 67V59.764L298.674 49.72H300.714L305.358 57.748L309.978 49.72H312.018L306.246 59.764V67H304.47ZM319.725 67.36C318.005 67.36 316.553 66.98 315.369 66.22C314.185 65.452 313.289 64.392 312.681 63.04C312.073 61.688 311.769 60.128 311.769 58.36C311.769 56.592 312.073 55.032 312.681 53.68C313.289 52.328 314.185 51.272 315.369 50.512C316.553 49.744 318.005 49.36 319.725 49.36C321.453 49.36 322.905 49.744 324.081 50.512C325.265 51.272 326.161 52.328 326.769 53.68C327.385 55.032 327.693 56.592 327.693 58.36C327.693 60.128 327.385 61.688 326.769 63.04C326.161 64.392 325.265 65.452 324.081 66.22C322.905 66.98 321.453 67.36 319.725 67.36ZM319.725 65.668C321.077 65.668 322.205 65.36 323.109 64.744C324.013 64.128 324.689 63.272 325.137 62.176C325.593 61.072 325.821 59.8 325.821 58.36C325.821 56.92 325.593 55.652 325.137 54.556C324.689 53.46 324.013 52.604 323.109 51.988C322.205 51.372 321.077 51.06 319.725 51.052C318.373 51.052 317.249 51.36 316.353 51.976C315.457 52.592 314.781 53.452 314.325 54.556C313.877 55.652 313.649 56.92 313.641 58.36C313.633 59.8 313.853 61.068 314.301 62.164C314.757 63.252 315.437 64.108 316.341 64.732C317.245 65.348 318.373 65.66 319.725 65.668Z" fill="#3DA2EA"/>
<defs>
<filter id="filter0_d_32_5" x="153.427" y="0.824219" width="35.3302" height="87.4783" filterUnits="userSpaceOnUse" color-interpolation-filters="sRGB">
<feFlood flood-opacity="0" result="BackgroundImageFix"/>
<feColorMatrix in="SourceAlpha" type="matrix" values="0 0 0 0 0 0 0 0 0 0 0 0 0 0 0 0 0 0 127 0" result="hardAlpha"/>
<feOffset dy="4"/>
<feGaussianBlur stdDeviation="2"/>
<feComposite in2="hardAlpha" operator="out"/>
<feColorMatrix type="matrix" values="0 0 0 0 0 0 0 0 0 0 0 0 0 0 0 0 0 0 0.25 0"/>
<feBlend mode="normal" in2="BackgroundImageFix" result="effect1_dropShadow_32_5"/>
<feBlend mode="normal" in="SourceGraphic" in2="effect1_dropShadow_32_5" result="shape"/>
</filter>
</defs>
</svg>
