<?xml version="1.0" encoding="UTF-8"?>
<!DOCTYPE svg PUBLIC "-//W3C//DTD SVG 1.1//EN" "http://www.w3.org/Graphics/SVG/1.1/DTD/svg11.dtd">
<!-- Creator: CorelDRAW -->
<svg fill="#3da2ea" xmlns="http://www.w3.org/2000/svg" xml:space="preserve" width="1.70666in" height="1.70666in" style="shape-rendering:geometricPrecision; text-rendering:geometricPrecision; image-rendering:optimizeQuality; fill-rule:evenodd; clip-rule:evenodd"
viewBox="0 0 1.70666 1.70666"
 xmlns:xlink="http://www.w3.org/1999/xlink">
 <defs>
  <style type="text/css">
   <![CDATA[
    .fil0 {fill:black}
   ]]>
  </style>
 </defs>
 <g id="Layer_x0020_1">
  <metadata id="CorelCorpID_0Corel-Layer"/>
  <path class="fil0" d="M0.962421 1.55589l-0.218154 0c-0.00419291,0 -0.00829528,-0.00122047 -0.011815,-0.00350394 -0.066626,-0.0433346 -0.197232,-0.173465 -0.197232,-0.277906l0 -0.0439606c-0.0314882,-0.00388189 -0.056752,-0.0165669 -0.0752795,-0.0378543 -0.0390472,-0.0448583 -0.0343228,-0.113886 -0.0304803,-0.14148 0.00023622,-0.00169291 0.000519685,-0.00333465 0.000858268,-0.00492913 0.0139055,0.0250039 0.033937,0.0482913 0.0607283,0.0568425 0.0197402,0.00629921 0.0413701,0.00278346 0.0581024,-0.00944094 0.016748,-0.0122362 0.0266535,-0.0317362 0.0266535,-0.0524803 0,-0.0708425 0.0173701,-0.15137 0.0575118,-0.212669 0.0701654,0.0205276 0.143744,0.0290394 0.21672,0.0290394 0.054563,0 0.114709,-0.00475197 0.170717,-0.0150709 0.0149449,0.0601181 0.0382087,0.118539 0.0710157,0.170976 0.0158937,0.0254055 0.0382717,0.0561693 0.0609449,0.076315 0.0119055,0.0105748 0.0272677,0.0164055 0.0431732,0.0164055 0.00777953,0 0.0155079,-0.0013937 0.0227953,-0.00412598 0.0225472,-0.00845276 0.0385787,-0.0286732 0.0416614,-0.0525591 0.00120866,-0.00937402 0.00235039,-0.0189449 0.00340157,-0.0286693 0.00614567,0.00641732 0.0114882,0.0160157 0.0134843,0.0303701 0.00382677,0.027622 0.00851575,0.0966929 -0.0305118,0.141508 -0.0185276,0.0212677 -0.0437795,0.0339409 -0.075252,0.0378228l0 0.0439606c0,0.104441 -0.13061,0.234571 -0.197232,0.277906 -0.00351575,0.00228346 -0.00762205,0.00350394 -0.011811,0.00350394z"/>
  <path class="fil0" d="M0.538748 1.65381c-0.00782677,0 -0.0153819,-0.00425197 -0.0192402,-0.0116772 -0.00551969,-0.0106181 -0.00138976,-0.0236969 0.00923228,-0.0292205 0.118949,-0.0618504 0.0943858,-0.160102 0.0932835,-0.164256 -0.00306299,-0.0115157 0.00373228,-0.0234055 0.0152283,-0.0265394 0.0114803,-0.00311811 0.416173,-0.00451181 0.432327,-2.75591e-005 0.0114961,0.00320472 0.0182283,0.0150906 0.0150827,0.0265906 -0.0011811,0.00444488 -0.0254724,0.102484 0.0932953,0.164236 0.0106142,0.00551969 0.0147441,0.0186024 0.00922835,0.0292244 -0.00385827,0.00741732 -0.0114213,0.0116654 -0.0192402,0.0116693 -0.00253937,0 -0.174831,-0.000444882 -0.260988,-0.00137402 -0.121898,0.000929134 -0.365677,0.00137402 -0.368209,0.00137402z"/>
  <path class="fil0" d="M1.19589 1.06285c-0.00522047,0 -0.0103583,-0.00188583 -0.0143937,-0.0054685 -0.00401575,-0.00357087 -0.0947913,-0.0860394 -0.127492,-0.266398 -0.0409055,0.0102835 -0.118189,0.0232402 -0.203965,0.0232402 -7.87402e-006,0 -2.3622e-005,0 -3.54331e-005,0 -0.0855,0 -0.163807,-0.012252 -0.233047,-0.0364409 -0.0230945,0.0278622 -0.0844803,0.115815 -0.0844803,0.263402 0,0.00691339 -0.00329921,0.0134134 -0.00888583,0.0174921 -0.00557874,0.00407874 -0.0127756,0.00525591 -0.0193622,0.00314961 -0.00618898,-0.00197244 -0.0277835,-0.011937 -0.0457913,-0.0573346 -0.0218268,-0.0550315 -0.0312087,-0.141799 -0.0278701,-0.25789 0.00170079,-0.068937 0.0452008,-0.132776 0.122465,-0.179665 0.0704055,-0.0427205 0.163421,-0.0672244 0.255209,-0.0672244 0.0881811,0 0.169563,0.0218346 0.235713,0.0631929 0.0168307,0.00290551 0.0655591,0.0155906 0.108587,0.0684843 0.0675945,0.0831024 0.0894094,0.221909 0.0648307,0.412567 -0.00102756,0.0079685 -0.00637402,0.0147087 -0.0138937,0.0175236 -0.00246457,0.000925197 -0.00503543,0.00137008 -0.00758661,0.00137008z"/>
  <path class="fil0" d="M0.447268 0.388949c-0.00777559,0 -0.0152874,-0.00419291 -0.0191732,-0.0115433 -0.025374,-0.0479961 -0.0941496,-0.15602 -0.0948425,-0.157106 -0.00492126,-0.00772441 -0.00445276,-0.0177126 0.00116929,-0.0249409 0.00561811,-0.00722835 0.0151732,-0.0101417 0.023878,-0.0072874 0.00314961,0.00103937 0.0540709,0.0178031 0.0986339,0.0332559 -0.0317008,-0.0570866 -0.0757638,-0.135075 -0.0763701,-0.136146 -0.00588583,-0.0104173 -0.0022126,-0.0236378 0.00820079,-0.0295236 0.0104173,-0.00588583 0.0236378,-0.00221654 0.0295236,0.00820079 0.00341339,0.00603937 0.0837677,0.148264 0.104335,0.187228 0.00423622,0.00802756 0.00302362,0.0178386 -0.00303937,0.0245906 -0.00606299,0.00674803 -0.0156811,0.00901181 -0.0241181,0.00566142 -0.0191929,-0.00761811 -0.059374,-0.0214646 -0.0934252,-0.0329724 0.0219961,0.0354567 0.0496772,0.0810079 0.0643583,0.108783 0.00559449,0.0105787 0.00155118,0.023689 -0.00902362,0.0292835 -0.00322835,0.00170472 -0.00669291,0.00251575 -0.0101063,0.00251575z"/>
  <path class="fil0" d="M0.288539 0.467106c-0.00382283,0 -0.00769685,-0.00101181 -0.0112047,-0.0031378l-0.187504 -0.11361c-0.00757087,-0.00458661 -0.0115945,-0.0133189 -0.0101535,-0.0220551 0.00144094,-0.00873622 0.00805118,-0.0157165 0.0166929,-0.0176299l0.113067 -0.0250512 -0.141118 -0.0814724c-0.0103661,-0.00598425 -0.0139134,-0.0192362 -0.00792913,-0.0295984 0.00598425,-0.0103622 0.0192362,-0.0139094 0.0295945,-0.00792913l0.189382 0.109339c0.00774016,0.00446457 0.0119449,0.0132283 0.0105787,0.022063 -0.00135827,0.00883071 -0.00800394,0.0159213 -0.0167244,0.0178543l-0.114732 0.0254213 0.141303 0.0856102c0.0102323,0.00620079 0.0135039,0.0195236 0.00730315,0.0297598 -0.00407874,0.00672047 -0.0112283,0.010437 -0.0185551,0.010437z"/>
  <path class="fil0" d="M0.314575 0.694299l-0.218996 0c-0.00924016,0 -0.0174606,-0.00585827 -0.0204803,-0.0145866 -0.00301575,-0.00873228 -0.000165354,-0.0184173 0.00709843,-0.0241181l0.0971378 -0.0762598 -0.157665 0c-0.0119685,0 -0.0216693,-0.00969685 -0.0216693,-0.0216654 0,-0.0119685 0.00970079,-0.0216654 0.0216693,-0.0216654l0.220354 0c0.00923622,0 0.0174606,0.00585433 0.0204803,0.0145866 0.00301575,0.00873228 0.000165354,0.0184173 -0.00710236,0.0241181l-0.0971339 0.0762559 0.156307 0c0.0119646,0 0.0216654,0.00970079 0.0216654,0.0216693 0,0.0119646 -0.00970472,0.0216654 -0.0216654,0.0216654z"/>
  <path class="fil0" d="M1.25478 0.398008c-0.0031811,0 -0.00640945,-0.000700787 -0.00946063,-0.00218898 -0.0107638,-0.00523228 -0.0152441,-0.0181969 -0.0100118,-0.0289606 0.0125906,-0.0258858 0.0445433,-0.0785748 0.0693031,-0.118476 -0.035626,0.0120551 -0.0777362,0.026622 -0.0945748,0.0336811 -0.00851181,0.00357087 -0.0183504,0.00135039 -0.0245118,-0.00552756 -0.00616142,-0.00687402 -0.0072874,-0.0168937 -0.00280709,-0.0249685 0.0213937,-0.0385591 0.104819,-0.186224 0.105657,-0.187709 0.00588976,-0.0104173 0.0191102,-0.0140984 0.0295236,-0.00820472 0.0104173,0.00588976 0.0140945,0.0191063 0.00820472,0.0295236 -0.000610236,0.00107874 -0.0446378,0.0790118 -0.0769055,0.136386 0.044374,-0.0154449 0.0959134,-0.0324173 0.0991732,-0.0334882 0.00870079,-0.0028622 0.0182598,5.51181e-005 0.0238819,0.0072874 0.00562205,0.00723228 0.00608268,0.0172165 0.00116142,0.0249409 -0.000783465,0.00123622 -0.0788819,0.123874 -0.0991299,0.165516 -0.00375591,0.00770472 -0.0114724,0.012189 -0.0195039,0.012189z"/>
  <path class="fil0" d="M1.41813 0.467106c-0.00732677,0 -0.0144764,-0.00371654 -0.0185512,-0.0104409 -0.00620079,-0.0102362 -0.00292913,-0.0235591 0.00730315,-0.0297598l0.141303 -0.0856102 -0.114728 -0.0254213c-0.00872441,-0.00193307 -0.0153661,-0.00902756 -0.0167283,-0.0178583 -0.00135827,-0.00883071 0.00284252,-0.0175906 0.0105827,-0.022063l0.189378 -0.109335c0.0103622,-0.00598031 0.0236181,-0.00242913 0.0295984,0.00792913 0.00598425,0.0103622 0.00242913,0.0236142 -0.00793307,0.0295945l-0.141118 0.0814803 0.113071 0.0250512c0.00864567,0.00191339 0.015252,0.0088937 0.0166929,0.0176299 0.00144094,0.00873622 -0.00257874,0.0174685 -0.0101535,0.0220551l-0.187512 0.11361c-0.00350787,0.00212598 -0.00738189,0.0031378 -0.0112047,0.0031378z"/>
  <path class="fil0" d="M1.61109 0.694299l-0.218988 0c-0.0119685,0 -0.0216654,-0.00970079 -0.0216654,-0.0216654 0,-0.0119685 0.00969685,-0.0216693 0.0216654,-0.0216693l0.156303 0 -0.0971417 -0.0762559c-0.00726772,-0.00570079 -0.0101142,-0.0153898 -0.00709843,-0.0241181 0.00301575,-0.00873228 0.0112402,-0.0145866 0.0204803,-0.0145866l0.220354 0c0.0119685,0 0.0216654,0.00969685 0.0216654,0.0216654 0,0.0119685 -0.00969685,0.0216654 -0.0216654,0.0216654l-0.157669 0 0.0971417 0.0762598c0.00726772,0.00570079 0.0101142,0.0153898 0.00709843,0.0241181 -0.00301969,0.00872835 -0.0112402,0.0145866 -0.0204803,0.0145866z"/>
 </g>
</svg>
